PathFileType	4	(X/Y/Z)	C:\Users\dbl\Desktop\20210112(1)\20210112\bx_y_10_502.trc
DataRate	CameraRate	NumFrames	NumMarkers	Units	OrigDataRate	OrigDataStartFrame	OrigNumFrames
50.00	50.00	       4	43	mm	50.00	312	       499
Frame#	Time	Top.Head			R.Acromium			L.Acromium			Sternum			R.ASIS			L.ASIS			V.Sacral			R.Thigh.Upper			R.Thigh.Front			R.Thigh.Rear			R.Knee.Lat			R.Knee.Med			R.Shank.Upper			R.Shank.Front			R.Shank.Rear			R.Ankle.Lat			R.Midfoot.Lat			R.Toe.Lat			R.Toe.Tip			R.Toe.Med			R.Ankle.Med			R.Midfoot.Sup			R.Heel			L.Thigh.Upper			L.Thigh.Front			L.Thigh.Rear			L.Knee.Lat			L.Knee.Med			L.Shank.Upper			L.Shank.Front			L.Shank.Rear			L.Ankle.Lat			L.Midfoot.Lat			L.Toe.Lat			L.Toe.Tip			L.Toe.Med			L.Ankle.Med			L.Midfoot.Sup			L.Heel			origin1 front left			origin2 front right			origin 3 back right			origin 4 back leftt			
		X1	Y1	Z1	X2	Y2	Z2	X3	Y3	Z3	X4	Y4	Z4	X5	Y5	Z5	X6	Y6	Z6	X7	Y7	Z7	X8	Y8	Z8	X9	Y9	Z9	X10	Y10	Z10	X11	Y11	Z11	X12	Y12	Z12	X13	Y13	Z13	X14	Y14	Z14	X15	Y15	Z15	X16	Y16	Z16	X17	Y17	Z17	X18	Y18	Z18	X19	Y19	Z19	X20	Y20	Z20	X21	Y21	Z21	X22	Y22	Z22	X23	Y23	Z23	X24	Y24	Z24	X25	Y25	Z25	X26	Y26	Z26	X27	Y27	Z27	X28	Y28	Z28	X29	Y29	Z29	X30	Y30	Z30	X31	Y31	Z31	X32	Y32	Z32	X33	Y33	Z33	X34	Y34	Z34	X35	Y35	Z35	X36	Y36	Z36	X37	Y37	Z37	X38	Y38	Z38	X39	Y39	Z39	X40	Y40	Z40	X41	Y41	Z41	X42	Y42	Z42	X43	Y43	Z43	

312	6.220	-298.28656	91.85158	1580.24463	-493.86401	-88.66776	1357.69629	-496.90643	251.07384	1364.29724	-531.08789	78.95838	1246.28247	-779.89282	-15.98742	1004.18829	-777.42468	200.59827	1019.43854	-967.97046	77.65474	1079.77881	-840.17859	-81.70821	854.54626	-764.95996	-19.88962	795.57794	-859.92542	-64.48689	698.94897	-832.91541	-40.81398	604.38025	-808.45685	64.44144	563.99567	-833.14807	-36.65076	553.90350	-771.62042	7.08622	522.23682	-856.31439	-46.41633	466.80350	-775.85205	-12.82015	199.64870	-666.59033	-70.66366	159.05341	-623.96777	-81.05119	156.86713	-563.25208	-36.91402	163.58720	-606.37555	18.18111	168.84892	-730.40912	69.00469	221.77014	-678.50476	51.71437	164.53889	-799.50146	49.56466	172.06514	-836.57275	274.18777	865.31024	-770.84650	207.73813	807.07092	-863.02765	275.82974	731.59155	-860.12769	246.95047	620.29901	-804.83838	141.02939	564.02716	-845.19220	242.38145	560.90259	-779.55615	203.76976	532.91565	-865.19324	254.12769	481.23840	-778.57306	227.44603	199.43652	-667.76691	301.54187	157.69946	-629.51630	308.13550	160.94539	-563.08698	259.61664	164.76613	-598.75909	225.25008	174.51221	-722.29956	158.62900	221.58124	-677.88446	176.70007	163.22037	-800.85065	176.31737	180.77328	-527.98584	304.09183	146.43564	-517.96863	-72.49094	142.92924	-876.04315	-78.59352	141.49739	-882.55420	296.15369	144.66698	
313	6.240	-291.43146	92.16547	1567.58105	-488.33563	-88.19070	1347.54053	-491.75790	250.73038	1354.19653	-528.50977	78.97433	1240.34351	-782.60815	-16.08582	1001.01904	-780.02484	199.82652	1016.76752	-970.04590	77.46173	1080.01404	-843.69220	-81.68225	854.01611	-768.32568	-20.24833	794.84344	-863.26538	-64.93240	698.02612	-835.28613	-41.18674	603.78131	-810.41956	63.29102	563.62006	-835.28326	-36.94204	553.26337	-773.51886	6.88112	522.02789	-857.94562	-46.78453	466.09677	-775.75916	-13.07286	199.55585	-666.56824	-70.73170	159.04248	-623.93457	-81.09632	156.86020	-563.29169	-36.87330	163.57341	-606.40656	18.16113	168.80853	-730.66187	68.84042	221.81723	-678.56805	51.62155	164.65741	-799.58917	49.43239	172.02075	-839.72656	273.93262	864.51404	-773.96985	207.41910	806.25262	-865.83240	276.03940	730.83887	-862.46472	246.99733	619.50708	-806.91565	140.99567	563.52637	-847.03784	242.30507	560.36963	-781.24579	203.63586	532.69574	-866.58972	254.19373	480.65265	-778.67389	227.60509	199.47694	-667.73914	301.52014	157.71289	-629.46606	308.11240	160.97023	-563.05518	259.55673	164.66156	-598.74310	225.23048	174.41727	-722.30408	158.69676	221.69688	-677.90875	176.69818	163.32140	-800.91547	176.36598	180.74930	-527.99274	304.10101	146.45537	-517.96155	-72.49837	142.89748	-876.05347	-78.60786	141.51176	-882.54071	296.13687	144.67055	
314	6.260	-285.01419	92.49072	1555.04126	-482.99200	-87.51856	1337.27734	-486.87305	250.49117	1344.05237	-525.95984	78.97646	1234.59375	-785.16913	-16.13366	997.83252	-782.55194	199.09274	1014.21606	-972.05139	77.19379	1080.35413	-847.08612	-81.54810	853.49878	-771.54492	-20.53512	794.27460	-866.32709	-65.41145	697.23578	-837.50232	-41.59428	603.17218	-812.25446	62.30382	563.27582	-837.22729	-37.34337	552.76263	-775.24585	6.63450	521.80127	-859.41235	-47.19467	465.43933	-775.76587	-13.34744	199.41660	-666.54895	-70.79942	159.00391	-623.90680	-81.18148	156.84656	-563.31213	-36.83846	163.55775	-606.43158	18.15431	168.75963	-730.92310	68.61873	221.83542	-678.63574	51.50275	164.73422	-799.63336	49.29359	171.99759	-842.80170	273.71561	863.67920	-777.04529	207.15027	805.41455	-868.68573	276.21088	730.00409	-864.80524	247.06844	618.76770	-808.83295	140.86046	563.05280	-848.85846	242.26042	559.85376	-782.89722	203.44389	532.54797	-868.02185	254.24992	480.06766	-778.78143	227.73978	199.52859	-667.69653	301.47989	157.72774	-629.42596	308.07391	160.99290	-563.05774	259.50427	164.59789	-598.77606	225.20110	174.28247	-722.30927	158.73396	221.84616	-677.99213	176.69589	163.46446	-801.03326	176.40248	180.73944	-527.99792	304.10501	146.47173	-517.96802	-72.49711	142.84259	-876.06366	-78.61688	141.54379	-882.50739	296.12228	144.68742	
315	6.280	-279.07245	92.78779	1542.62744	-477.78925	-86.68751	1326.88489	-482.31628	250.34210	1333.82813	-523.43945	78.96510	1229.03284	-787.63110	-16.18330	994.76910	-785.00214	198.39290	1011.77405	-973.94336	76.92598	1080.70874	-850.38257	-81.38005	852.93225	-774.60022	-20.75000	793.80914	-869.02612	-65.83932	696.52484	-839.58069	-41.96888	602.56891	-813.96399	61.46577	562.96265	-839.03448	-37.71511	552.37305	-776.81250	6.35713	521.58740	-860.77271	-47.52041	464.87189	-775.87579	-13.60994	199.24446	-666.53107	-70.85671	158.95221	-623.89417	-81.28265	156.80676	-563.30231	-36.80693	163.52986	-606.44775	18.16631	168.71164	-731.22192	68.38879	221.85039	-678.68457	51.37898	164.76358	-799.63550	49.15882	171.99802	-845.76807	273.66873	862.90259	-780.04932	206.94073	804.57043	-871.51086	276.30972	729.09705	-867.00269	247.12613	617.96838	-810.51489	140.65535	562.63049	-850.61554	242.20625	559.34290	-784.48834	203.24544	532.43817	-869.46222	254.23691	479.48300	-778.85425	227.81514	199.56857	-667.62762	301.42493	157.75659	-629.40094	308.01480	161.01941	-563.06848	259.45758	164.56982	-598.79755	225.14497	174.16153	-722.35498	158.73184	222.00850	-678.10724	176.71552	163.58109	-801.15186	176.43149	180.73303	-528.00464	304.08752	146.45795	-517.99835	-72.48459	142.77551	-876.06592	-78.61737	141.56490	-882.47406	296.12207	144.71452	
